<svg width="16" height="16" viewBox="0 0 16 16" fill="none" xmlns="http://www.w3.org/2000/svg">
<path fill-rule="evenodd" clip-rule="evenodd" d="M7.18404 1.79278L3.40888 4.41707C2.84814 4.80687 2.52382 5.45509 2.58562 6.13521C2.72054 7.6198 3.0725 10.2334 3.93321 11.4925C4.73511 12.6656 6.45887 13.7827 7.28911 14.2779C7.57753 14.4499 7.93212 14.4499 8.22054 14.2779C9.05079 13.7827 10.7745 12.6656 11.5764 11.4925C12.4372 10.2334 12.7891 7.6198 12.924 6.13521C12.9858 5.45509 12.6615 4.80687 12.1008 4.41707L8.32561 1.79278C7.98247 1.55424 7.52718 1.55424 7.18404 1.79278ZM10.385 7.32009C10.5618 7.10796 10.5332 6.79267 10.321 6.61589C10.1089 6.43911 9.79359 6.46777 9.61681 6.67991L7.46732 9.2593L6.35447 8.14645C6.15921 7.95119 5.84263 7.95119 5.64737 8.14645C5.45211 8.34171 5.45211 8.65829 5.64737 8.85356L7.14737 10.3536C7.2467 10.4529 7.38324 10.5059 7.52358 10.4995C7.66391 10.4931 7.7951 10.428 7.88503 10.3201L10.385 7.32009Z" fill="#326CF9"/>
</svg>
